<svg width="227" height="27" viewBox="0 0 227 27" fill="none" xmlns="http://www.w3.org/2000/svg">
<g clip-path="url(#clip0_7762_40157)">
<path d="M25.4253 19.4559L24.0883 17.7939L22.993 18.9759L17.343 13.1479L17.1559 11.3719L13.1197 4.31589H13.108H13.0612L11.58 8.03589L7.2183 1.53589L7.15788 1.54389L7.15593 1.54789L4.39819 9.22789L2.19979 6.33789L2.13937 6.35189L-0.318237 15.0919L0.617252 17.6639L-0.0336926 19.4059L3.06901 23.8679L3.08266 23.8779L8.67805 26.4639L9.54143 25.4299L9.17113 23.8759L13.3458 23.4199L16.2964 26.0599L17.5204 25.2999L17.5788 22.3039L24.8679 20.9879L25.4253 19.4559Z" fill="#010C83"/>
<path d="M45.143 14.5879C45.143 17.0459 43.3558 19.6519 40.0874 19.6519H36.3104V24.1099H33.5488V9.52393H40.2083C43.3344 9.52393 45.143 12.1699 45.143 14.5879ZM42.4418 14.6079C42.4418 13.3159 41.4868 12.1079 40.1264 12.1079H36.3085V17.1079H40.0036C41.5063 17.1079 42.4398 15.8779 42.4398 14.6079H42.4418Z" fill="#010C83"/>
<path d="M46.9514 16.7959C46.9514 12.5039 50.1184 9.23193 54.4236 9.23193C58.7288 9.23193 61.8744 12.5039 61.8744 16.7959C61.8744 21.0879 58.7073 24.3999 54.4236 24.3999C50.1398 24.3999 46.9514 21.1079 46.9514 16.7959ZM59.0718 16.7959C59.0718 14.0659 57.2242 11.8779 54.4216 11.8779C51.6191 11.8779 49.7715 14.0659 49.7715 16.7959C49.7715 19.5259 51.5996 21.7559 54.4216 21.7559C57.2437 21.7559 59.0718 19.5899 59.0718 16.7959Z" fill="#010C83"/>
<path d="M74.4612 21.4839V24.1099H64.5938V9.52393H67.3749V21.4839H74.4612Z" fill="#010C83"/>
<path d="M86.3408 20.942H79.9444L78.7672 24.108H75.8848L81.3262 9.52197H84.9395L90.4004 24.108H87.4965L86.3389 20.942H86.3408ZM85.4073 18.422L83.1329 12.254L80.8584 18.422H85.4073Z" fill="#010C83"/>
<path d="M98.2395 19.0039H95.2148V24.1079H92.4531V9.52393H99.3758C102.461 9.52393 104.248 11.9619 104.248 14.2739C104.248 16.1919 103.151 18.0039 101.141 18.7119L104.675 24.1079H101.467L98.2395 19.0039ZM95.2148 16.5039H99.1945C100.637 16.5039 101.549 15.4819 101.549 14.2739C101.549 13.0659 100.615 12.0859 99.2958 12.0859H95.2148V16.5039Z" fill="#010C83"/>
<path d="M118.786 9.52393V24.1099H117.751V17.1499H108.574V24.1099H107.539V9.52393H108.574V16.1919H117.751V9.52393H118.786Z" fill="#010C83"/>
<path d="M123.744 10.5039V16.2339H131.438V17.1499H123.744V23.1299H132.454V24.1099H122.707V9.52393H132.473V10.5039H123.742H123.744Z" fill="#010C83"/>
<path d="M148.068 16.8159C148.068 21.0039 145.53 24.1079 141.003 24.1079H135.988V9.52393H141.003C145.53 9.52393 148.068 12.6899 148.068 16.8159ZM147.052 16.7959C147.052 13.3579 144.981 10.5039 141.001 10.5039H137.021V23.1299H141.001C144.981 23.1299 147.052 20.3579 147.052 16.7959Z" fill="#010C83"/>
<path d="M164.961 17.1919C164.942 21.8999 161.773 24.3599 157.916 24.3599C153.733 24.3599 150.566 21.0879 150.566 16.7759C150.566 12.4639 153.714 9.27588 157.875 9.27588C161.001 9.27588 163.478 11.0059 164.433 13.5059L163.439 13.7559C162.626 11.7339 160.617 10.2559 157.875 10.2559C154.078 10.2559 151.582 13.2559 151.582 16.7559C151.582 20.2559 154.1 23.3819 157.916 23.3819C161.326 23.3819 163.825 21.1939 163.987 17.5059H157.795V16.5679H164.961V17.1939V17.1919Z" fill="#010C83"/>
<path d="M169.207 10.5039V16.2339H176.901V17.1499H169.207V23.1299H177.917V24.1099H168.17V9.52393H177.936V10.5039H169.205H169.207Z" fill="#010C83"/>
<path d="M192.697 9.52393V24.1099H191.662V17.1499H182.484V24.1099H181.449V9.52393H182.484V16.1919H191.662V9.52393H192.697Z" fill="#010C83"/>
<path d="M195.906 16.7759C195.906 12.5259 199.032 9.27588 203.176 9.27588C207.319 9.27588 210.424 12.5259 210.424 16.7759C210.424 21.0259 207.298 24.3599 203.176 24.3599C199.054 24.3599 195.906 21.0879 195.906 16.7759ZM209.408 16.7539C209.408 13.2539 206.912 10.2539 203.176 10.2539C199.44 10.2539 196.922 13.2539 196.922 16.7539C196.922 20.2539 199.418 23.3799 203.176 23.3799C206.933 23.3799 209.408 20.3799 209.408 16.7539Z" fill="#010C83"/>
<path d="M227.319 17.1919C227.299 21.8999 224.13 24.3599 220.273 24.3599C216.091 24.3599 212.924 21.0879 212.924 16.7759C212.924 12.4639 216.071 9.27588 220.232 9.27588C223.358 9.27588 225.836 11.0059 226.791 13.5059L225.797 13.7559C224.984 11.7339 222.974 10.2559 220.232 10.2559C216.436 10.2559 213.939 13.2559 213.939 16.7559C213.939 20.2559 216.457 23.3819 220.273 23.3819C223.684 23.3819 226.182 21.1939 226.344 17.5059H220.152V16.5679H227.319V17.1939V17.1919Z" fill="#010C83"/>
</g>
<defs>
<clipPath id="clip0_7762_40157">
<rect width="227" height="27" fill="white"/>
</clipPath>
</defs>
</svg>
