<svg width="229" height="27" viewBox="0 0 229 27" fill="none" xmlns="http://www.w3.org/2000/svg">
<g clip-path="url(#clip0_7762_40164)">
<path d="M26.4253 18.4559L25.0883 16.7939L23.993 17.9759L18.343 12.1479L18.1559 10.3719L14.1197 3.31589H14.108H14.0612L12.58 7.03589L8.2183 0.535889L8.15788 0.543889L8.15593 0.547889L5.39819 8.22789L3.19979 5.33789L3.13937 5.35189L0.681763 14.0919L1.61725 16.6639L0.966307 18.4059L4.06901 22.8679L4.08266 22.8779L9.67805 25.4639L10.5414 24.4299L10.1711 22.8759L14.3458 22.4199L17.2964 25.0599L18.5204 24.2999L18.5788 21.3039L25.8679 19.9879L26.4253 18.4559Z" fill="white"/>
<path d="M46.143 13.5879C46.143 16.0459 44.3558 18.6519 41.0874 18.6519H37.3104V23.1099H34.5488V8.52393H41.2083C44.3344 8.52393 46.143 11.1699 46.143 13.5879ZM43.4418 13.6079C43.4418 12.3159 42.4868 11.1079 41.1264 11.1079H37.3085V16.1079H41.0036C42.5063 16.1079 43.4398 14.8779 43.4398 13.6079H43.4418Z" fill="white"/>
<path d="M47.9514 15.7959C47.9514 11.5039 51.1184 8.23193 55.4236 8.23193C59.7288 8.23193 62.8744 11.5039 62.8744 15.7959C62.8744 20.0879 59.7073 23.3999 55.4236 23.3999C51.1398 23.3999 47.9514 20.1079 47.9514 15.7959ZM60.0718 15.7959C60.0718 13.0659 58.2242 10.8779 55.4216 10.8779C52.6191 10.8779 50.7715 13.0659 50.7715 15.7959C50.7715 18.5259 52.5996 20.7559 55.4216 20.7559C58.2437 20.7559 60.0718 18.5899 60.0718 15.7959Z" fill="white"/>
<path d="M75.4612 20.4839V23.1099H65.5938V8.52393H68.3749V20.4839H75.4612Z" fill="white"/>
<path d="M87.3408 19.942H80.9444L79.7672 23.108H76.8848L82.3262 8.52197H85.9395L91.4004 23.108H88.4965L87.3389 19.942H87.3408ZM86.4073 17.422L84.1329 11.254L81.8584 17.422H86.4073Z" fill="white"/>
<path d="M99.2395 18.0039H96.2148V23.1079H93.4531V8.52393H100.376C103.461 8.52393 105.248 10.9619 105.248 13.2739C105.248 15.1919 104.151 17.0039 102.141 17.7119L105.675 23.1079H102.467L99.2395 18.0039ZM96.2148 15.5039H100.194C101.637 15.5039 102.549 14.4819 102.549 13.2739C102.549 12.0659 101.615 11.0859 100.296 11.0859H96.2148V15.5039Z" fill="white"/>
<path d="M119.786 8.52393V23.1099H118.751V16.1499H109.574V23.1099H108.539V8.52393H109.574V15.1919H118.751V8.52393H119.786Z" fill="white"/>
<path d="M124.744 9.50393V15.2339H132.438V16.1499H124.744V22.1299H133.454V23.1099H123.707V8.52393H133.473V9.50393H124.742H124.744Z" fill="white"/>
<path d="M149.068 15.8159C149.068 20.0039 146.53 23.1079 142.003 23.1079H136.988V8.52393H142.003C146.53 8.52393 149.068 11.6899 149.068 15.8159ZM148.052 15.7959C148.052 12.3579 145.981 9.50393 142.001 9.50393H138.021V22.1299H142.001C145.981 22.1299 148.052 19.3579 148.052 15.7959Z" fill="white"/>
<path d="M165.961 16.1919C165.942 20.8999 162.773 23.3599 158.916 23.3599C154.733 23.3599 151.566 20.0879 151.566 15.7759C151.566 11.4639 154.714 8.27588 158.875 8.27588C162.001 8.27588 164.478 10.0059 165.433 12.5059L164.439 12.7559C163.626 10.7339 161.617 9.25588 158.875 9.25588C155.078 9.25588 152.582 12.2559 152.582 15.7559C152.582 19.2559 155.1 22.3819 158.916 22.3819C162.326 22.3819 164.825 20.1939 164.987 16.5059H158.795V15.5679H165.961V16.1939V16.1919Z" fill="white"/>
<path d="M170.207 9.50393V15.2339H177.901V16.1499H170.207V22.1299H178.917V23.1099H169.17V8.52393H178.936V9.50393H170.205H170.207Z" fill="white"/>
<path d="M193.697 8.52393V23.1099H192.662V16.1499H183.484V23.1099H182.449V8.52393H183.484V15.1919H192.662V8.52393H193.697Z" fill="white"/>
<path d="M196.906 15.7759C196.906 11.5259 200.032 8.27588 204.176 8.27588C208.319 8.27588 211.424 11.5259 211.424 15.7759C211.424 20.0259 208.298 23.3599 204.176 23.3599C200.054 23.3599 196.906 20.0879 196.906 15.7759ZM210.408 15.7539C210.408 12.2539 207.912 9.25388 204.176 9.25388C200.44 9.25388 197.922 12.2539 197.922 15.7539C197.922 19.2539 200.418 22.3799 204.176 22.3799C207.933 22.3799 210.408 19.3799 210.408 15.7539Z" fill="white"/>
<path d="M228.319 16.1919C228.299 20.8999 225.13 23.3599 221.273 23.3599C217.091 23.3599 213.924 20.0879 213.924 15.7759C213.924 11.4639 217.071 8.27588 221.232 8.27588C224.358 8.27588 226.836 10.0059 227.791 12.5059L226.797 12.7559C225.984 10.7339 223.974 9.25588 221.232 9.25588C217.436 9.25588 214.939 12.2559 214.939 15.7559C214.939 19.2559 217.457 22.3819 221.273 22.3819C224.684 22.3819 227.182 20.1939 227.344 16.5059H221.152V15.5679H228.319V16.1939V16.1919Z" fill="white"/>
</g>
<defs>
<clipPath id="clip0_7762_40164">
<rect width="229" height="26" fill="white"/>
</clipPath>
</defs>
</svg>
